# xmcd
#
# Track frame offsets:
#	182
#	19840
#	44552
#	68677
#	90320
#	112985
#	129920
#	150510
#	175535
#	196247
#
# Disc length: 2838 seconds
#
# Revision: 0
# Processed by: cddbd v1.5PL3 Copyright (c) Steve Scherf et al.
# Submitted via: EasyCDDAExtractor 4.6.9.1
#
DISCID=6f0b140a
DTITLE=Benoît Blue Boy - Plus tard dans la soirée
DYEAR=1993
DGENRE=Blues
TTITLE0=Elle veut vendre ma guitare
TTITLE1=Sur tes traces
TTITLE2=J'me r'lève la nuit
TTITLE3=L'amour, la guerre
TTITLE4=T'inquiète pas, Benoît
TTITLE5=Coq en pâte
TTITLE6=Noël toute l'année
TTITLE7=Ca va t'revenir
TTITLE8=Jacques a dit
TTITLE9=Toujours du Rock 'n Roll
EXTD=
EXTT0=
EXTT1=
EXTT2=
EXTT3=
EXTT4=
EXTT5=
EXTT6=
EXTT7=
EXTT8=
EXTT9=
PLAYORDER=
